<svg width="33" height="33" viewBox="0 0 33 33" fill="none" xmlns="http://www.w3.org/2000/svg">
<path d="M23.1859 11.4246C23.0428 11.054 22.8237 10.7175 22.5426 10.4367C22.2616 10.156 21.9248 9.93719 21.5541 9.79449C21.0436 9.60541 20.5044 9.50548 19.96 9.49904C19.0548 9.45782 18.7834 9.44751 16.4902 9.44751C14.197 9.44751 13.9256 9.45782 13.0204 9.49904C12.4755 9.50528 11.9357 9.60522 11.4246 9.79449C11.054 9.93758 10.7175 10.1567 10.4367 10.4378C10.156 10.7188 9.9372 11.0556 9.7945 11.4263C9.60542 11.9368 9.50548 12.476 9.49905 13.0204C9.45782 13.9256 9.44752 14.197 9.44752 16.4902C9.44752 18.7834 9.45782 19.0548 9.49905 19.96C9.50529 20.5049 9.60523 21.0447 9.7945 21.5558C9.93759 21.9264 10.1567 22.2629 10.4378 22.5437C10.7188 22.8244 11.0556 23.0432 11.4263 23.1859C11.9368 23.375 12.476 23.4749 13.0204 23.4814C13.9256 23.5226 14.197 23.5312 16.4902 23.5312C18.7834 23.5312 19.0548 23.5226 19.96 23.4796C20.5049 23.474 21.0446 23.3746 21.5558 23.1859C21.9264 23.0428 22.2629 22.8237 22.5437 22.5426C22.8244 22.2616 23.0432 21.9248 23.1859 21.5541C23.375 21.0436 23.4749 20.5044 23.4814 19.96C23.5226 19.0548 23.5312 18.7834 23.5312 16.4902C23.5312 14.197 23.5226 13.9256 23.4796 13.0204C23.474 12.4756 23.3746 11.9358 23.1859 11.4246ZM16.4902 20.9013C15.6178 20.9013 14.7649 20.6426 14.0395 20.1579C13.3141 19.6732 12.7487 18.9843 12.4149 18.1783C12.081 17.3722 11.9936 16.4853 12.1638 15.6296C12.334 14.774 12.7542 13.988 13.3711 13.3711C13.988 12.7542 14.774 12.334 15.6296 12.1638C16.4853 11.9936 17.3722 12.081 18.1783 12.4148C18.9843 12.7487 19.6732 13.3141 20.1579 14.0395C20.6426 14.7649 20.9013 15.6178 20.9013 16.4902C20.9013 17.6601 20.4366 18.7821 19.6093 19.6093C18.7821 20.4366 17.6601 20.9013 16.4902 20.9013ZM21.0748 12.9362C20.871 12.9362 20.6717 12.8758 20.5022 12.7625C20.3327 12.6493 20.2006 12.4883 20.1226 12.3C20.0446 12.1117 20.0242 11.9044 20.064 11.7045C20.1038 11.5046 20.2019 11.3209 20.3461 11.1768C20.4902 11.0327 20.6738 10.9345 20.8738 10.8947C21.0737 10.855 21.2809 10.8754 21.4692 10.9534C21.6576 11.0314 21.8185 11.1635 21.9318 11.333C22.045 11.5025 22.1055 11.7017 22.1055 11.9056C22.1055 12.1789 21.9969 12.4411 21.8036 12.6344C21.6103 12.8276 21.3482 12.9362 21.0748 12.9362ZM19.3537 16.4902C19.3537 17.0565 19.1857 17.6102 18.8711 18.0811C18.5564 18.5519 18.1092 18.919 17.586 19.1357C17.0628 19.3524 16.487 19.4091 15.9316 19.2986C15.3761 19.1881 14.8659 18.9154 14.4654 18.515C14.065 18.1145 13.7923 17.6043 13.6818 17.0488C13.5713 16.4934 13.628 15.9176 13.8447 15.3944C14.0614 14.8712 14.4285 14.424 14.8994 14.1093C15.3703 13.7947 15.9239 13.6267 16.4902 13.6267C17.2496 13.6267 17.978 13.9284 18.515 14.4654C19.052 15.0024 19.3537 15.7308 19.3537 16.4902ZM16.4902 0C13.2288 0 10.0405 0.967133 7.32874 2.7791C4.61694 4.59107 2.50335 7.16648 1.25525 10.1797C0.00714491 13.1929 -0.319416 16.5085 0.316862 19.7073C0.95314 22.9061 2.52368 25.8443 4.82988 28.1505C7.13607 30.4567 10.0743 32.0273 13.2731 32.6635C16.4719 33.2998 19.7875 32.9733 22.8007 31.7252C25.8139 30.4771 28.3893 28.3635 30.2013 25.6517C32.0133 22.9399 32.9804 19.7517 32.9804 16.4902C32.9804 12.1167 31.2431 7.92238 28.1505 4.82987C25.058 1.73736 20.8637 0 16.4902 0ZM25.0273 20.0304C25.0128 20.7432 24.8775 21.4483 24.6271 22.1158C24.4065 22.6862 24.0692 23.2042 23.6367 23.6367C23.2042 24.0691 22.6862 24.4065 22.1158 24.6271C21.4488 24.8773 20.7443 25.0126 20.0322 25.0273C19.1149 25.0685 18.8229 25.0788 16.4902 25.0788C14.1575 25.0788 13.8655 25.0685 12.9483 25.0273C12.2361 25.0126 11.5316 24.8773 10.8646 24.6271C10.2942 24.4065 9.77618 24.0691 9.34372 23.6367C8.91126 23.2042 8.57392 22.6862 8.35332 22.1158C8.10316 21.4488 7.96783 20.7443 7.95309 20.0322C7.91187 19.1149 7.90156 18.8229 7.90156 16.4902C7.90156 14.1575 7.91187 13.8655 7.95309 12.9482C7.96728 12.2362 8.10203 11.5317 8.35161 10.8646C8.57219 10.2937 8.90971 9.77525 9.34248 9.34248C9.77526 8.9097 10.2937 8.57219 10.8646 8.3516C11.5317 8.10202 12.2362 7.96727 12.9483 7.95309C13.8655 7.91186 14.1575 7.90155 16.4902 7.90155C18.8229 7.90155 19.1149 7.91186 20.0322 7.95309C20.7442 7.96727 21.4487 8.10202 22.1158 8.3516C22.6864 8.57239 23.2045 8.90999 23.637 9.34276C24.0694 9.77552 24.4067 10.2939 24.6271 10.8646C24.8773 11.5316 25.0126 12.2361 25.0273 12.9482C25.0685 13.8655 25.0789 14.1575 25.0789 16.4902C25.0789 18.8229 25.0685 19.1132 25.0273 20.0304Z" fill="white"/>
</svg>
