<svg width="141" height="34" viewBox="0 0 141 34" fill="none" xmlns="http://www.w3.org/2000/svg">
<g clip-path="url(#clip0_487_404)">
<path d="M135.251 7.0487L133.355 4.8282L137.186 0.219818H141L135.251 7.0487Z" fill="#807DF0"/>
<path d="M129.813 8.73599L131.709 10.9565L127.837 15.605H124.023L129.813 8.73599Z" fill="#807DF0"/>
<path d="M15.4378 9.16651C15.4378 10.1035 15.2724 10.965 14.9421 11.7517C14.6188 12.5384 14.1698 13.2176 13.5956 13.7899C13.021 14.3546 12.3389 14.798 11.5488 15.1199C10.7588 15.4419 9.90052 15.6028 8.97406 15.6028H1.41144C1.21058 15.6028 1.02367 15.567 0.851271 15.4954C0.678868 15.4237 0.527949 15.3274 0.39905 15.2055C0.277133 15.0766 0.179922 14.9269 0.107953 14.7547C0.0359843 14.583 0 14.3969 0 14.1969V1.62528C0 1.43221 0.0359843 1.24985 0.107953 1.07817C0.179922 0.906503 0.276596 0.756224 0.39905 0.627872C0.528486 0.498984 0.679406 0.398977 0.851271 0.327313C1.02367 0.25565 1.21058 0.219818 1.41144 0.219818H8.97406C9.90052 0.219818 10.7588 0.380793 11.5488 0.702744C12.3389 1.02469 13.021 1.47179 13.5956 2.04349C14.1703 2.60824 14.6193 3.28797 14.9421 4.08162C15.2724 4.86831 15.4378 5.72667 15.4378 6.65615V9.16651ZM12.6369 6.65615C12.6369 6.11279 12.5472 5.61543 12.3679 5.16513C12.1955 4.71482 11.9479 4.33191 11.6245 4.01744C11.3012 3.69549 10.9135 3.44895 10.4612 3.27728C10.016 3.09865 9.52027 3.00934 8.9746 3.00934H2.80087V12.8144H8.97406C9.51973 12.8144 10.0155 12.7283 10.4607 12.5572C10.9129 12.3785 11.3012 12.1315 11.624 11.817C11.9473 11.495 12.1949 11.1127 12.3673 10.6693C12.5467 10.2185 12.6364 9.71843 12.6364 9.16758V6.65722L12.6369 6.65615Z" fill="white"/>
<path d="M19.9942 15.6028H17.1934V0.219818H19.9942V15.6028Z" fill="white"/>
<path d="M37.1977 14.1974C37.1977 14.3974 37.1617 14.5835 37.0897 14.7552C37.0178 14.9269 36.9173 15.0771 36.7879 15.206C36.666 15.3274 36.5183 15.4242 36.3464 15.4959C36.174 15.5675 35.9871 15.6034 35.7862 15.6034H25.6811C25.4227 15.6034 25.1424 15.5745 24.8405 15.5173C24.5462 15.4531 24.2514 15.3563 23.9571 15.2274C23.6697 15.0985 23.3931 14.9343 23.1273 14.7338C22.8614 14.5263 22.6246 14.2797 22.4162 13.9936C22.2153 13.7006 22.0536 13.3642 21.9312 12.9855C21.8093 12.5994 21.748 12.1667 21.748 11.6876V4.1351C21.748 3.87786 21.777 3.60244 21.8345 3.30883C21.899 3.00827 21.9962 2.7152 22.1256 2.42908C22.255 2.13601 22.4237 1.85685 22.6321 1.59212C22.8405 1.32739 23.0881 1.09529 23.3754 0.894739C23.6697 0.687236 24.0075 0.523052 24.3883 0.401117C24.7691 0.279717 25.1999 0.21875 25.6811 0.21875H37.0682V3.00774H25.6811C25.3148 3.00774 25.0344 3.10454 24.8405 3.2976C24.6467 3.49066 24.5495 3.77678 24.5495 4.15596V11.6865C24.5495 12.0443 24.6461 12.3229 24.8405 12.5235C25.0414 12.7165 25.3218 12.8133 25.6811 12.8133H34.3968V9.31626H26.9416V6.50587H35.7862C35.9871 6.50587 36.174 6.54545 36.3464 6.62407C36.5188 6.69573 36.666 6.79574 36.7879 6.92462C36.9173 7.05351 37.0178 7.20326 37.0897 7.37493C37.1617 7.53965 37.1977 7.71827 37.1977 7.91133V14.1974Z" fill="white"/>
<path d="M41.7247 15.6028H38.9238V0.219818H41.7247V15.6028Z" fill="white"/>
<path d="M58.4568 3.00881H52.2836V15.6028H49.4828V3.00881H43.2988V0.219818H58.4568V3.00881Z" fill="white"/>
<path d="M75.1439 15.6028H72.343V11.8266H62.4962V15.6028H59.6953V7.91133C59.6953 6.78825 59.8892 5.75501 60.277 4.81109C60.6647 3.86716 61.2034 3.05534 61.893 2.37614C62.5821 1.69694 63.3974 1.16749 64.3384 0.788312C65.2793 0.409138 66.3062 0.219818 67.4196 0.219818H73.7324C73.9263 0.219818 74.1094 0.25565 74.2819 0.327313C74.4543 0.398977 74.6052 0.498984 74.7346 0.627872C74.8635 0.756759 74.9645 0.907038 75.0359 1.07817C75.1079 1.24985 75.1439 1.43221 75.1439 1.62528V15.6034V15.6028ZM62.4962 9.03762H72.343V3.00881H67.4196C67.3331 3.00881 67.15 3.02325 66.8702 3.05159C66.5973 3.07298 66.2778 3.13395 65.9115 3.23396C65.5522 3.33397 65.1714 3.48799 64.7691 3.69549C64.3674 3.903 63.9973 4.18911 63.6595 4.55385C63.3222 4.91858 63.0419 5.37637 62.8195 5.92722C62.6041 6.47058 62.4962 7.13213 62.4962 7.91187V9.03816V9.03762Z" fill="white"/>
<path d="M91.0772 15.6028H78.3001C78.0987 15.6028 77.9123 15.567 77.7399 15.4954C77.5675 15.4237 77.4166 15.3274 77.2872 15.2055C77.1653 15.0766 77.0686 14.9269 76.9966 14.7547C76.9247 14.583 76.8887 14.3969 76.8887 14.1969V0.219818H79.6901V12.8139H91.0772V15.6028Z" fill="white"/>
<path d="M117.094 15.6028H114.271V6.4417L109.305 15.1418C109.183 15.3638 109.011 15.5317 108.788 15.6462C108.572 15.7606 108.339 15.8178 108.087 15.8178C107.835 15.8178 107.614 15.7606 107.398 15.6462C107.19 15.5317 107.024 15.3638 106.903 15.1418L101.915 6.4417V15.6028H99.1133V1.41029C99.1133 1.08834 99.2067 0.802216 99.3936 0.551929C99.5875 0.301642 99.8389 0.133715 100.148 0.0476115C100.299 0.0117799 100.45 0.00108383 100.6 0.0155235C100.751 0.0224759 100.895 0.0550988 101.031 0.112323C101.175 0.162594 101.304 0.237466 101.419 0.337474C101.534 0.430529 101.631 0.544977 101.71 0.680816L108.087 11.7197L114.465 0.680816C114.631 0.409137 114.857 0.216074 115.144 0.101626C115.438 -0.012821 115.744 -0.0304695 116.06 0.0481464C116.362 0.133715 116.609 0.302177 116.803 0.552464C116.997 0.802751 117.094 1.08887 117.094 1.41082V15.6034V15.6028Z" fill="white"/>
<path d="M122.169 15.6028H119.367V0.219818H122.169V15.6028Z" fill="white"/>
<path d="M132.499 5.71223L134.395 7.93272L140.999 15.6028H137.196L132.499 10.1532L130.603 7.93272L123.988 0.219818H127.78L132.499 5.71223Z" fill="white"/>
<path d="M11.549 31.7939H10.3207V30.1382H6.00369V31.7939H4.77539V28.4215C4.77539 27.9295 4.86025 27.4759 5.0305 27.062C5.20076 26.6481 5.43654 26.2924 5.73891 25.9945C6.04129 25.6967 6.39844 25.4646 6.81092 25.2982C7.2234 25.1319 7.67347 25.049 8.16168 25.049H10.9298C11.0146 25.049 11.0952 25.0645 11.1704 25.0961C11.2461 25.1276 11.3122 25.1715 11.3686 25.2276C11.4255 25.2838 11.4695 25.3501 11.5007 25.425C11.5324 25.5004 11.548 25.5801 11.548 25.6651V31.7934L11.549 31.7939ZM6.00369 28.9156H10.3207V26.2726H8.16221C8.12462 26.2726 8.04459 26.278 7.92375 26.2892C7.80237 26.3004 7.66219 26.3277 7.50322 26.3716C7.34424 26.4154 7.17667 26.4828 6.99997 26.5737C6.82381 26.6646 6.66161 26.7903 6.51338 26.9502C6.36515 27.1101 6.24323 27.3102 6.14709 27.5497C6.05095 27.7899 6.00315 28.0803 6.00315 28.422V28.9156H6.00369Z" fill="#8785FF"/>
<path d="M17.7738 30.0772C17.7738 30.2874 17.747 30.4762 17.6938 30.6441C17.6401 30.812 17.5692 30.9591 17.4811 31.0864C17.393 31.2131 17.2905 31.3217 17.1739 31.411C17.0574 31.5003 16.9355 31.5731 16.8076 31.6298C16.6798 31.6864 16.5509 31.7276 16.4204 31.7544C16.2899 31.7811 16.1658 31.7945 16.0498 31.7945H12.7248V30.5714H16.0407C16.2077 30.5714 16.3334 30.5291 16.4188 30.4441C16.5042 30.3591 16.5461 30.2371 16.5461 30.0772C16.5305 29.751 16.3651 29.5879 16.0503 29.5879H14.1469C13.8763 29.5879 13.6464 29.5408 13.4573 29.4467C13.2683 29.3526 13.1147 29.2349 12.9971 29.0937C12.8789 28.9525 12.794 28.8007 12.7419 28.6375C12.6898 28.4744 12.6641 28.3225 12.6641 28.1814C12.6641 27.9086 12.7129 27.6792 12.8107 27.4925C12.9084 27.3059 13.0309 27.1545 13.1791 27.0385C13.3274 26.9224 13.4879 26.8385 13.6609 26.7866C13.8338 26.7347 13.996 26.709 14.1475 26.709H17.1659V27.9321H14.1571C14.0943 27.9321 14.0444 27.9391 14.0084 27.9535C13.9724 27.9674 13.9455 27.9867 13.9278 28.0102C13.9106 28.0337 13.9004 28.0589 13.8972 28.0856C13.894 28.1124 13.8924 28.138 13.8924 28.1632C13.8956 28.2134 13.9047 28.2525 13.9208 28.2808C13.9364 28.3092 13.9563 28.3295 13.9799 28.3418C14.0035 28.3546 14.0304 28.3616 14.0605 28.3632C14.0905 28.3648 14.1195 28.3653 14.148 28.3653H16.0514C16.3662 28.3653 16.6342 28.422 16.8544 28.5349C17.0746 28.6477 17.2529 28.7894 17.3882 28.9606C17.5236 29.1317 17.6218 29.3173 17.6836 29.5178C17.7448 29.7184 17.7754 29.905 17.7754 30.0772H17.7738Z" fill="#8785FF"/>
<path d="M23.5688 30.0772C23.5688 30.2874 23.5419 30.4762 23.4887 30.6441C23.435 30.812 23.3641 30.9591 23.276 31.0864C23.188 31.2131 23.0854 31.3217 22.9688 31.411C22.8523 31.5003 22.7304 31.5731 22.6026 31.6298C22.4747 31.6864 22.3458 31.7276 22.2153 31.7544C22.0848 31.7811 21.9607 31.7945 21.8447 31.7945H18.5197V30.5714H21.8356C22.0026 30.5714 22.1283 30.5291 22.2137 30.4441C22.2991 30.3591 22.341 30.2371 22.341 30.0772C22.3254 29.751 22.16 29.5879 21.8453 29.5879H19.9419C19.6712 29.5879 19.4413 29.5408 19.2523 29.4467C19.0632 29.3526 18.9096 29.2349 18.792 29.0937C18.6738 28.9525 18.589 28.8007 18.5369 28.6375C18.4848 28.4744 18.459 28.3225 18.459 28.1814C18.459 27.9086 18.5079 27.6792 18.6056 27.4925C18.7034 27.3059 18.8258 27.1545 18.974 27.0385C19.1223 26.9224 19.2829 26.8385 19.4558 26.7866C19.6287 26.7347 19.7909 26.709 19.9424 26.709H22.9608V27.9321H19.9521C19.8892 27.9321 19.8393 27.9391 19.8033 27.9535C19.7673 27.9674 19.7405 27.9867 19.7227 28.0102C19.7055 28.0337 19.6953 28.0589 19.6921 28.0856C19.6889 28.1124 19.6873 28.138 19.6873 28.1632C19.6905 28.2134 19.6996 28.2525 19.7157 28.2808C19.7313 28.3092 19.7512 28.3295 19.7748 28.3418C19.7985 28.3546 19.8253 28.3616 19.8554 28.3632C19.8855 28.3648 19.9145 28.3653 19.9429 28.3653H21.8463C22.1611 28.3653 22.4291 28.422 22.6493 28.5349C22.8695 28.6477 23.0478 28.7894 23.1831 28.9606C23.3185 29.1317 23.4168 29.3173 23.4785 29.5178C23.5398 29.7184 23.5704 29.905 23.5704 30.0772H23.5688Z" fill="#8785FF"/>
<path d="M29.9217 28.3937C29.9217 28.5632 29.8916 28.7456 29.832 28.9418C29.7724 29.1381 29.6751 29.3199 29.5414 29.4873C29.4077 29.6553 29.2326 29.7954 29.0172 29.9082C28.8013 30.0211 28.5392 30.0777 28.2309 30.0777H26.0155V28.9162H28.2309C28.398 28.9162 28.5269 28.8654 28.6182 28.7632C28.7095 28.6616 28.7551 28.5348 28.7551 28.3846C28.7551 28.2247 28.7041 28.0995 28.6015 28.0081C28.4989 27.9171 28.3754 27.8717 28.2309 27.8717H26.0155C25.8485 27.8717 25.7196 27.9225 25.6282 28.0246C25.5369 28.1268 25.4913 28.253 25.4913 28.4033V30.1104C25.4913 30.2735 25.5423 30.4002 25.6449 30.4911C25.7469 30.5821 25.8742 30.6275 26.0252 30.6275H28.2309V31.7939H26.0155C25.8452 31.7939 25.6621 31.764 25.465 31.7046C25.2684 31.6452 25.0853 31.5484 24.9172 31.4153C24.7485 31.2821 24.6078 31.1078 24.4945 30.8933C24.3811 30.6783 24.3242 30.4173 24.3242 30.1104V28.3937C24.3242 28.2241 24.3543 28.0418 24.4139 27.8455C24.4735 27.6497 24.5707 27.4679 24.7045 27.3C24.8382 27.1321 25.0133 26.9919 25.2287 26.8791C25.4446 26.7663 25.7067 26.7096 26.0149 26.7096H28.2304C28.4007 26.7096 28.5838 26.7395 28.7809 26.7989C28.9775 26.8582 29.1601 26.955 29.3287 27.0882C29.4974 27.2214 29.6381 27.3957 29.7514 27.6102C29.8647 27.8252 29.9217 28.0861 29.9217 28.3931V28.3937Z" fill="#8785FF"/>
<path d="M35.684 30.0772C35.684 30.2874 35.6571 30.4762 35.604 30.6441C35.5503 30.812 35.4794 30.9591 35.3913 31.0864C35.3032 31.2131 35.2006 31.3217 35.0841 31.411C34.9675 31.5003 34.8456 31.5731 34.7178 31.6298C34.59 31.6864 34.4611 31.7276 34.3306 31.7544C34.2 31.7811 34.076 31.7945 33.96 31.7945H30.6349V30.5714H33.9508C34.1179 30.5714 34.2435 30.5291 34.3289 30.4441C34.4143 30.3591 34.4562 30.2371 34.4562 30.0772C34.4407 29.751 34.2752 29.5879 33.9605 29.5879H32.0571C31.7864 29.5879 31.5565 29.5408 31.3675 29.4467C31.1784 29.3526 31.0248 29.2349 30.9072 29.0937C30.7891 28.9525 30.7042 28.8007 30.6521 28.6375C30.6 28.4744 30.5742 28.3225 30.5742 28.1814C30.5742 27.9086 30.6231 27.6792 30.7208 27.4925C30.8186 27.3059 30.941 27.1545 31.0893 27.0385C31.2375 26.9224 31.3981 26.8385 31.571 26.7866C31.744 26.7347 31.9062 26.709 32.0576 26.709H35.076V27.9321H32.0673C32.0045 27.9321 31.9545 27.9391 31.9185 27.9535C31.8825 27.9674 31.8557 27.9867 31.838 28.0102C31.8208 28.0337 31.8106 28.0589 31.8074 28.0856C31.8041 28.1124 31.8025 28.138 31.8025 28.1632C31.8057 28.2134 31.8149 28.2525 31.831 28.2808C31.8466 28.3092 31.8664 28.3295 31.8901 28.3418C31.9137 28.3546 31.9405 28.3616 31.9706 28.3632C32.0007 28.3648 32.0297 28.3653 32.0582 28.3653H33.9616C34.2763 28.3653 34.5443 28.422 34.7645 28.5349C34.9847 28.6477 35.163 28.7894 35.2984 28.9606C35.4337 29.1317 35.532 29.3173 35.5938 29.5178C35.655 29.7184 35.6856 29.905 35.6856 30.0772H35.684Z" fill="#8785FF"/>
<path d="M41.4809 30.0772C41.4809 30.2874 41.454 30.4762 41.4008 30.6441C41.3471 30.812 41.2762 30.9591 41.1882 31.0864C41.1001 31.2131 40.9975 31.3217 40.8809 31.411C40.7644 31.5003 40.6425 31.5731 40.5147 31.6298C40.3868 31.6864 40.2579 31.7276 40.1274 31.7544C39.9969 31.7811 39.8729 31.7945 39.7568 31.7945H36.4318V30.5714H39.7477C39.9147 30.5714 40.0404 30.5291 40.1258 30.4441C40.2112 30.3591 40.2531 30.2371 40.2531 30.0772C40.2375 29.751 40.0721 29.5879 39.7574 29.5879H37.854C37.5833 29.5879 37.3534 29.5408 37.1644 29.4467C36.9753 29.3526 36.8217 29.2349 36.7041 29.0937C36.5859 28.9525 36.5011 28.8007 36.449 28.6375C36.3969 28.4744 36.3711 28.3225 36.3711 28.1814C36.3711 27.9086 36.42 27.6792 36.5177 27.4925C36.6155 27.3059 36.7379 27.1545 36.8862 27.0385C37.0344 26.9224 37.195 26.8385 37.3679 26.7866C37.5409 26.7347 37.7031 26.709 37.8545 26.709H40.8729V27.9321H37.8642C37.8013 27.9321 37.7514 27.9391 37.7154 27.9535C37.6794 27.9674 37.6526 27.9867 37.6348 28.0102C37.6177 28.0337 37.6074 28.0589 37.6042 28.0856C37.601 28.1124 37.5994 28.138 37.5994 28.1632C37.6026 28.2134 37.6117 28.2525 37.6279 28.2808C37.6434 28.3092 37.6633 28.3295 37.6869 28.3418C37.7106 28.3546 37.7374 28.3616 37.7675 28.3632C37.7976 28.3648 37.8266 28.3653 37.855 28.3653H39.7585C40.0732 28.3653 40.3412 28.422 40.5614 28.5349C40.7816 28.6477 40.9599 28.7894 41.0952 28.9606C41.2306 29.1317 41.3289 29.3173 41.3906 29.5178C41.4519 29.7184 41.4825 29.905 41.4825 30.0772H41.4809Z" fill="#8785FF"/>
<path d="M47.8955 30.0772C47.8955 30.2874 47.8687 30.4762 47.815 30.6441C47.7613 30.812 47.6904 30.9591 47.6023 31.0864C47.5142 31.2131 47.4116 31.3217 47.2951 31.411C47.1785 31.5003 47.0566 31.573 46.9288 31.6297C46.801 31.6864 46.6721 31.7276 46.5416 31.7543C46.411 31.7811 46.2875 31.7945 46.171 31.7945H43.9555C43.7853 31.7945 43.5994 31.7645 43.398 31.7051C43.1966 31.6458 43.0097 31.5474 42.8384 31.411C42.6665 31.2746 42.5237 31.0976 42.4087 30.8794C42.2938 30.6617 42.2363 30.3943 42.2363 30.0777V28.422C42.2363 28.1086 42.2938 27.8428 42.4087 27.6246C42.5237 27.4069 42.6671 27.2294 42.8384 27.093C43.0097 26.9566 43.1966 26.8588 43.398 26.7989C43.5994 26.7395 43.7853 26.7096 43.9555 26.7096H46.171C46.4857 26.7096 46.7537 26.7663 46.9739 26.8791C47.1941 26.9919 47.3724 27.1337 47.5078 27.3048C47.6431 27.4759 47.7414 27.6615 47.8032 27.8621C47.8644 28.0626 47.895 28.2493 47.895 28.422V30.0777L47.8955 30.0772ZM46.6672 28.4311C46.6672 28.2616 46.6248 28.1364 46.5399 28.0546C46.4551 27.9728 46.3321 27.9321 46.1715 27.9321H43.9657C43.8019 27.9321 43.6778 27.9738 43.5925 28.0567C43.5076 28.1396 43.4652 28.2616 43.4652 28.4215V30.0772C43.4652 30.2371 43.5076 30.3596 43.5925 30.4441C43.6773 30.5286 43.8019 30.5714 43.9657 30.5714H46.1715C46.3385 30.5714 46.4626 30.5291 46.5448 30.4441C46.6264 30.3596 46.6678 30.2371 46.6678 30.0772V28.4311H46.6672Z" fill="#8785FF"/>
<path d="M53.4071 27.9327H50.6439C50.4768 27.9327 50.3511 27.9744 50.2657 28.0573C50.1809 28.1402 50.1385 28.2621 50.1385 28.422V31.7945H48.9102V28.422C48.9102 28.2118 48.937 28.0236 48.9907 27.8578C49.0444 27.6915 49.1159 27.5449 49.2055 27.4182C49.2952 27.2914 49.3984 27.1829 49.5149 27.0936C49.6315 27.0043 49.7534 26.9315 49.8812 26.8748C50.009 26.8181 50.1379 26.777 50.2684 26.7502C50.3989 26.7235 50.5214 26.7101 50.6347 26.7101H53.4071V27.9332V27.9327Z" fill="#8785FF"/>
<path d="M55.4607 25.6656H54.2324V24.5602H55.4607V25.6656ZM55.4607 31.7939H54.2324V26.7096H55.4607V31.7939Z" fill="#8785FF"/>
<path d="M61.908 30.1104C61.908 30.2799 61.8779 30.4623 61.8183 30.6586C61.7587 30.8548 61.6615 31.0367 61.5277 31.2041C61.394 31.372 61.2189 31.5121 61.0035 31.625C60.7876 31.7378 60.5255 31.7945 60.2173 31.7945H58.0018C57.8316 31.7945 57.6484 31.7645 57.4513 31.7052C57.2547 31.6458 57.0716 31.549 56.9035 31.4158C56.7348 31.2827 56.5941 31.1083 56.4808 30.8939C56.3675 30.6789 56.3105 30.4179 56.3105 30.1109C56.3105 29.9414 56.3406 29.758 56.4002 29.5606C56.4599 29.3633 56.5571 29.1804 56.6908 29.0124C56.8245 28.8445 56.9996 28.7044 57.215 28.5916C57.4309 28.4787 57.693 28.422 58.0013 28.422H60.2167V29.5884H58.0013C57.8342 29.5884 57.7053 29.6392 57.614 29.7414C57.5227 29.8435 57.4771 29.9697 57.4771 30.12C57.4771 30.2799 57.5297 30.4045 57.6355 30.4938C57.7408 30.5832 57.8659 30.6281 58.0109 30.6281H60.2167C60.3838 30.6281 60.5127 30.5778 60.604 30.4778C60.6953 30.3773 60.7409 30.2521 60.7409 30.1013V28.3942C60.7409 28.2343 60.6915 28.107 60.5921 28.0134C60.4928 27.9193 60.3676 27.8722 60.2167 27.8722H57.5195V26.7107H60.2167C60.387 26.7107 60.5701 26.7406 60.7672 26.8C60.9638 26.8593 61.1464 26.9561 61.3151 27.0893C61.4837 27.2225 61.6244 27.3968 61.7377 27.6113C61.8511 27.8263 61.908 28.0872 61.908 28.3942V30.1109V30.1104Z" fill="#8785FF"/>
<path d="M71.7041 30.0772C71.7041 30.2874 71.6773 30.4762 71.6236 30.6441C71.5699 30.812 71.499 30.9591 71.4109 31.0864C71.3228 31.2131 71.2202 31.3217 71.1037 31.411C70.9871 31.5003 70.8652 31.5731 70.7374 31.6298C70.6096 31.6864 70.4807 31.7276 70.3502 31.7544C70.2196 31.7811 70.0956 31.7945 69.9796 31.7945H67.7641C67.553 31.7945 67.364 31.7677 67.1975 31.7143C67.0305 31.6608 66.8833 31.5896 66.756 31.5003C66.6287 31.411 66.5197 31.3083 66.43 31.1923C66.3403 31.0762 66.2673 30.9548 66.2103 30.8275C66.1534 30.7003 66.1121 30.5719 66.0852 30.442C66.0583 30.312 66.0449 30.1901 66.0449 30.0772V28.4215C66.0449 28.1081 66.1024 27.8423 66.2173 27.6241C66.3323 27.4064 66.4757 27.2289 66.647 27.0925C66.8183 26.9561 67.0052 26.8583 67.2066 26.7984C67.408 26.739 67.5939 26.709 67.7641 26.709H69.9796V27.9321H67.7738C67.61 27.9321 67.4859 27.9738 67.4005 28.0567C67.3157 28.1396 67.2732 28.2616 67.2732 28.4215V30.0676C67.2732 30.2339 67.3151 30.3591 67.3984 30.4441C67.4816 30.5286 67.6041 30.5714 67.7647 30.5714H69.9801C70.1471 30.5714 70.2712 30.5291 70.3534 30.4441C70.435 30.3596 70.4764 30.2371 70.4764 30.0772V24.5602H71.7047V30.0772H71.7041Z" fill="#8785FF"/>
<path d="M78.3689 28.3937C78.3689 28.5632 78.3389 28.7456 78.2792 28.9418C78.2196 29.1381 78.1224 29.3199 77.9887 29.4873C77.8549 29.6553 77.6799 29.7954 77.4645 29.9082C77.2486 30.0211 76.9865 30.0777 76.6782 30.0777H74.4627V28.9162H76.6782C76.8452 28.9162 76.9741 28.8654 77.0654 28.7632C77.1567 28.6616 77.2024 28.5348 77.2024 28.3846C77.2024 28.2247 77.1514 28.0995 77.0488 28.0081C76.9462 27.9171 76.8227 27.8717 76.6782 27.8717H74.4627C74.2957 27.8717 74.1668 27.9225 74.0755 28.0246C73.9842 28.1268 73.9386 28.253 73.9386 28.4033V30.1104C73.9386 30.2735 73.9896 30.4002 74.0922 30.4911C74.1942 30.5821 74.321 30.6275 74.4724 30.6275H76.6782V31.7939H74.4627C74.2925 31.7939 74.1093 31.764 73.9122 31.7046C73.7151 31.6452 73.5325 31.5484 73.3644 31.4153C73.1958 31.2821 73.0551 31.1078 72.9417 30.8933C72.8284 30.6783 72.7715 30.4173 72.7715 30.1104V28.3937C72.7715 28.2241 72.8016 28.0418 72.8612 27.8455C72.9208 27.6497 73.018 27.4679 73.1517 27.3C73.2855 27.1321 73.4606 26.9919 73.6759 26.8791C73.8913 26.7663 74.1539 26.7096 74.4622 26.7096H76.6777C76.8479 26.7096 77.0311 26.7395 77.2282 26.7989C77.4247 26.8582 77.6074 26.955 77.776 27.0882C77.9446 27.2214 78.0854 27.3957 78.1987 27.6102C78.312 27.8252 78.3689 28.0861 78.3689 28.3931V28.3937Z" fill="#8785FF"/>
<path d="M90.3618 31.7939H89.1243V27.7776L86.947 31.5918C86.8933 31.6891 86.8187 31.7629 86.7225 31.8126C86.6264 31.8629 86.5233 31.8881 86.4132 31.8881C86.3031 31.8881 86.2058 31.8629 86.1135 31.8126C86.0206 31.7624 85.9475 31.6886 85.8938 31.5918L83.7068 27.7776V31.7939H82.4785V25.5715C82.4785 25.4303 82.5204 25.3052 82.6037 25.195C82.6869 25.0854 82.7965 25.0116 82.9318 24.9741C82.9979 24.9586 83.0639 24.9528 83.13 24.9576C83.1961 24.9624 83.26 24.9763 83.3212 24.9998C83.3824 25.0233 83.4383 25.0565 83.4888 25.0988C83.5393 25.141 83.5817 25.1923 83.6161 25.2517L86.4121 30.0911L89.2081 25.2517C89.2806 25.1324 89.3805 25.0479 89.5078 24.9977C89.6356 24.9474 89.7683 24.9399 89.9069 24.9741C90.039 25.0116 90.148 25.0854 90.2329 25.195C90.3177 25.3047 90.3602 25.4303 90.3602 25.5715V31.7939H90.3618Z" fill="#8785FF"/>
<path d="M96.8982 30.1104C96.8982 30.2799 96.8681 30.4623 96.8085 30.6586C96.7484 30.8548 96.6517 31.0367 96.518 31.2041C96.3842 31.372 96.2092 31.5121 95.9938 31.625C95.7779 31.7378 95.5158 31.7945 95.2075 31.7945H92.992C92.8218 31.7945 92.6386 31.7645 92.4415 31.7052C92.2444 31.6458 92.0618 31.549 91.8937 31.4158C91.7251 31.2827 91.5844 31.1083 91.471 30.8939C91.3577 30.6789 91.3008 30.4179 91.3008 30.1109C91.3008 29.9414 91.3309 29.758 91.3905 29.5606C91.4501 29.3633 91.5473 29.1804 91.681 29.0124C91.8148 28.8445 91.9899 28.7044 92.2052 28.5916C92.4211 28.4787 92.6832 28.422 92.9915 28.422H95.207V29.5884H92.9915C92.8245 29.5884 92.6956 29.6392 92.6043 29.7414C92.513 29.8435 92.4673 29.9697 92.4673 30.12C92.4673 30.2799 92.52 30.4045 92.6258 30.4938C92.731 30.5832 92.8562 30.6281 93.0012 30.6281H95.207C95.374 30.6281 95.5029 30.5778 95.5942 30.4778C95.6855 30.3773 95.7311 30.2521 95.7311 30.1013V28.3942C95.7311 28.2343 95.6817 28.107 95.5824 28.0134C95.483 27.9193 95.3579 27.8722 95.207 27.8722H92.5097V26.7107H95.207C95.3772 26.7107 95.5604 26.7406 95.7575 26.8C95.954 26.8593 96.1366 26.9561 96.3053 27.0893C96.4739 27.2225 96.6146 27.3968 96.728 27.6113C96.8413 27.8263 96.8982 28.0872 96.8982 28.3942V30.1109V30.1104Z" fill="#8785FF"/>
<path d="M102.415 27.9327H99.6517C99.4846 27.9327 99.359 27.9744 99.2736 28.0573C99.1887 28.1402 99.1463 28.2621 99.1463 28.422V31.7945H97.918V28.422C97.918 28.2118 97.9448 28.0236 97.9985 27.8578C98.0522 27.6915 98.1237 27.5449 98.2134 27.4182C98.3031 27.2914 98.4062 27.1829 98.5227 27.0936C98.6393 27.0043 98.7612 26.9315 98.889 26.8748C99.0163 26.8181 99.1457 26.777 99.2762 26.7502C99.4067 26.7235 99.5292 26.7101 99.6425 26.7101H102.415V27.9332V27.9327Z" fill="#8785FF"/>
<path d="M104.47 31.7939H103.242V24.5602H104.47V31.7939ZM109.222 31.7939H107.451L104.976 29.4141C104.837 29.2889 104.773 29.1317 104.782 28.944C104.788 28.8563 104.811 28.7739 104.85 28.6969C104.889 28.6199 104.944 28.5552 105.013 28.5017L107.256 26.7005H109.221L106.33 29.0194L109.221 31.7945L109.222 31.7939Z" fill="#8785FF"/>
<path d="M115.24 28.3937C115.24 28.5632 115.21 28.7456 115.15 28.9418C115.091 29.1381 114.994 29.3199 114.86 29.4873C114.726 29.6553 114.551 29.7954 114.336 29.9082C114.12 30.0211 113.858 30.0777 113.549 30.0777H111.334V28.9162H113.549C113.716 28.9162 113.845 28.8654 113.937 28.7632C114.028 28.6616 114.073 28.5348 114.073 28.3846C114.073 28.2247 114.022 28.0995 113.92 28.0081C113.817 27.9171 113.694 27.8717 113.549 27.8717H111.334C111.167 27.8717 111.038 27.9225 110.947 28.0246C110.855 28.1268 110.81 28.253 110.81 28.4033V30.1104C110.81 30.2735 110.861 30.4002 110.963 30.4911C111.065 30.5821 111.192 30.6275 111.344 30.6275H113.549V31.7939H111.334C111.164 31.7939 110.98 31.764 110.783 31.7046C110.586 31.6452 110.404 31.5484 110.236 31.4153C110.067 31.2821 109.926 31.1078 109.813 30.8933C109.7 30.6783 109.643 30.4173 109.643 30.1104V28.3937C109.643 28.2241 109.673 28.0418 109.732 27.8455C109.792 27.6497 109.889 27.4679 110.023 27.3C110.157 27.1321 110.332 26.9919 110.547 26.8791C110.762 26.7663 111.025 26.7096 111.333 26.7096H113.549C113.719 26.7096 113.902 26.7395 114.099 26.7989C114.296 26.8582 114.478 26.955 114.647 27.0882C114.816 27.2214 114.956 27.3957 115.07 27.6102C115.183 27.8252 115.24 28.0861 115.24 28.3931V28.3937Z" fill="#8785FF"/>
<path d="M120.71 27.9327H118.565V31.7939H117.323V27.9327H115.727V26.7096H117.323V25.0496H118.565V26.7096H120.71V27.9327Z" fill="#8785FF"/>
<path d="M122.763 25.6656H121.535V24.5602H122.763V25.6656ZM122.763 31.7939H121.535V26.7096H122.763V31.7939Z" fill="#8785FF"/>
<path d="M129.598 31.7939H128.37V28.9718C128.37 28.8119 128.342 28.6685 128.287 28.5413C128.232 28.4145 128.157 28.3054 128.063 28.2145C127.968 28.1236 127.857 28.0541 127.73 28.0054C127.602 27.9567 127.464 27.9327 127.317 27.9327H125.168V31.7939H123.939V27.3166C123.939 27.2321 123.955 27.1529 123.987 27.0791C124.018 27.0053 124.062 26.9411 124.119 26.886C124.175 26.831 124.242 26.7882 124.317 26.7566C124.392 26.7251 124.473 26.7096 124.558 26.7096H127.326C127.48 26.7096 127.644 26.7267 127.815 26.7614C127.987 26.7962 128.157 26.8518 128.325 26.9283C128.494 27.0053 128.654 27.1021 128.807 27.2198C128.96 27.3374 129.095 27.4802 129.213 27.6476C129.331 27.8155 129.425 28.0091 129.494 28.2284C129.563 28.4477 129.598 28.6958 129.598 28.9712V31.7934L129.598 31.7939Z" fill="#8785FF"/>
<path d="M136.229 32.2833C136.229 32.4935 136.202 32.6822 136.148 32.8502C136.094 33.0181 136.023 33.1652 135.935 33.2925C135.847 33.4197 135.745 33.5278 135.628 33.6171C135.512 33.7064 135.39 33.7791 135.262 33.8358C135.134 33.892 135.005 33.9337 134.875 33.9604C134.744 33.9872 134.62 34.0005 134.504 34.0005H132.289V32.7774H134.504C134.671 32.7774 134.795 32.7352 134.877 32.6507C134.959 32.5662 135 32.4437 135 32.2838V28.4225C135 28.2626 134.96 28.1412 134.877 28.0578C134.795 27.9749 134.671 27.9332 134.504 27.9332H132.289C132.138 27.9332 132.018 27.9797 131.93 28.0717C131.842 28.1642 131.798 28.2808 131.798 28.422V30.0778C131.798 30.2377 131.84 30.3601 131.925 30.4446C132.01 30.5291 132.134 30.5719 132.298 30.5719H134.504V31.795H132.289C132.172 31.795 132.049 31.7816 131.92 31.7549C131.791 31.7282 131.663 31.6864 131.535 31.6303C131.407 31.5736 131.285 31.5009 131.169 31.4116C131.052 31.3222 130.95 31.2142 130.862 31.0869C130.774 30.9596 130.703 30.8126 130.649 30.6446C130.595 30.4767 130.568 30.2879 130.568 30.0778V28.422C130.568 28.306 130.582 28.1835 130.609 28.0551C130.635 27.9268 130.677 27.799 130.734 27.6717C130.791 27.5449 130.864 27.423 130.953 27.307C131.043 27.1909 131.152 27.0893 131.279 27.001C131.407 26.9133 131.554 26.8427 131.721 26.7893C131.888 26.7358 132.076 26.709 132.288 26.709H134.503C134.62 26.709 134.743 26.7224 134.874 26.7492C135.004 26.7759 135.134 26.8176 135.261 26.8738C135.388 26.9305 135.511 27.0032 135.627 27.0925C135.744 27.1818 135.846 27.2898 135.934 27.4171C136.022 27.5444 136.093 27.6909 136.147 27.8567C136.201 28.0231 136.228 28.2113 136.228 28.4209V32.2822L136.229 32.2833Z" fill="#8785FF"/>
</g>
<defs>
<clipPath id="clip0_487_404">
<rect width="141" height="34" fill="white"/>
</clipPath>
</defs>
</svg>
