<svg width="95" height="95" viewBox="0 0 95 95" fill="none" xmlns="http://www.w3.org/2000/svg">
<g clip-path="url(#clip0_1176_157)">
<path d="M25.3621 81.3618L26.8973 82.1294C33.2938 85.9673 40.4579 87.7583 47.622 87.7583C70.1378 87.7583 88.5598 69.3363 88.5598 46.8206C88.5598 36.0744 84.2101 25.5841 76.5343 17.9083C68.8585 10.2324 58.624 5.88281 47.622 5.88281C25.1063 5.88281 6.68427 24.3048 6.94013 47.0764C6.94013 54.7523 9.24288 62.1722 13.0808 68.5687L14.1042 70.1039L10.0105 85.1997L25.3621 81.3618Z" fill="#00E676"/>
<path d="M80.8872 13.8165C72.1879 4.86136 60.1625 0 47.8812 0C21.7833 0 0.802736 21.2365 1.0586 47.0784C1.0586 55.266 3.36135 63.1976 7.19926 70.3618L0.546875 94.6685L25.3654 88.272C32.2736 92.1099 39.9495 93.901 47.6253 93.901C73.4672 93.901 94.4478 72.6645 94.4478 46.8225C94.4478 34.2854 89.5865 22.5158 80.8872 13.8165ZM47.8812 85.9693C40.9729 85.9693 34.0647 84.1782 28.1799 80.5962L26.6447 79.8286L11.8048 83.6665L15.6427 69.0824L14.6192 67.5473C3.36134 49.3812 8.73442 25.3302 27.1564 14.0724C45.5784 2.81447 69.3735 8.18755 80.6314 26.6095C91.8892 45.0315 86.5162 68.8266 68.0942 80.0845C62.2094 83.9224 55.0453 85.9693 47.8812 85.9693ZM70.3969 57.5687L67.5824 56.2894C67.5824 56.2894 63.4887 54.4984 60.9301 53.2191C60.6742 53.2191 60.4183 52.9632 60.1625 52.9632C59.3949 52.9632 58.8832 53.2191 58.3715 53.4749C58.3715 53.4749 58.1156 53.7308 54.5335 57.8246C54.2777 58.3363 53.766 58.5922 53.2542 58.5922H52.9984C52.7425 58.5922 52.2308 58.3363 51.9749 58.0804L50.6956 57.5687C47.8812 56.2894 45.3225 54.7542 43.2757 52.7073C42.7639 52.1956 41.9964 51.6839 41.4846 51.1722C39.6936 49.3812 37.9026 47.3343 36.6233 45.0315L36.3674 44.5198C36.1115 44.2639 36.1115 44.0081 35.8557 43.4964C35.8557 42.9846 35.8557 42.4729 36.1115 42.2171C36.1115 42.2171 37.135 40.9377 37.9026 40.1702C38.4143 39.6584 38.6702 38.8909 39.1819 38.3791C39.6936 37.6116 39.9495 36.5881 39.6936 35.8205C39.4377 34.5412 36.3674 27.633 35.5998 26.0978C35.0881 25.3302 34.5764 25.0744 33.8088 24.8185H33.0412C32.5295 24.8185 31.7619 24.8185 30.9943 24.8185C30.4826 24.8185 29.9709 25.0744 29.4592 25.0744L29.2033 25.3302C28.6916 25.5861 28.1799 26.0978 27.6681 26.3537C27.1564 26.8654 26.9006 27.3771 26.3888 27.8888C24.5978 30.1916 23.5744 33.0061 23.5744 35.8205C23.5744 37.8674 24.0861 39.9143 24.8537 41.7053L25.1095 42.4729C27.4123 47.3343 30.4826 51.6839 34.5764 55.5218L35.5998 56.5453C36.3674 57.3128 37.135 57.8246 37.6467 58.5922C43.0198 63.1976 49.1605 66.5238 56.0687 68.3149C56.8363 68.5707 57.8597 68.5707 58.6273 68.8266C59.3949 68.8266 60.4183 68.8266 61.1859 68.8266C62.4652 68.8266 64.0004 68.3149 65.0238 67.8031C65.7914 67.2914 66.3031 67.2914 66.8149 66.7797L67.3266 66.268C67.8383 65.7563 68.35 65.5004 68.8617 64.9887C69.3735 64.4769 69.8852 63.9652 70.1411 63.4535C70.6528 62.4301 70.9086 61.1508 71.1645 59.8715C71.1645 59.3597 71.1645 58.5921 71.1645 58.0804C71.1645 58.0804 70.9086 57.8246 70.3969 57.5687Z" fill="white"/>
</g>
<defs>
<clipPath id="clip0_1176_157">
<rect width="95" height="95" fill="white"/>
</clipPath>
</defs>
</svg>
